<svg width="48" height="48" viewBox="0 0 48 48" fill="none" xmlns="http://www.w3.org/2000/svg">
<g clip-path="url(#clip0_15_204)">
<path d="M33.6775 8H14.3225C10.8307 8 8 10.8307 8 14.3225V33.6775C8 37.1693 10.8307 40 14.3225 40H33.6775C37.1693 40 40 37.1693 40 33.6775V14.3225C40 10.8307 37.1693 8 33.6775 8Z" fill="black"/>
<path d="M24.6296 19.6177L14.0472 20.4725C14.8692 18.3123 16.5473 16.3418 18.5718 15.2169C18.9472 15.0088 19.6098 14.557 19.9852 14.802L24.6296 19.6177Z" fill="white"/>
<path d="M30.9364 32.5552C28.9698 34.5916 25.8744 35.4478 23.0753 35.2304C22.8909 35.2159 22.3786 35.1593 22.2442 35.0987C21.932 34.9578 20.8295 29.847 20.6754 29.1331C23.8485 30.7757 27.3668 32.0915 30.9364 32.5552Z" fill="white"/>
<path d="M28.6919 21.8635L21.1022 14.1684C23.6022 13.5283 26.4289 13.6534 28.6919 14.9693V21.8648V21.8635Z" fill="white"/>
<path d="M31.6476 16.9846C33.1294 18.4572 34.1885 20.4778 34.556 22.5405L29.6547 26.1404C30.0064 22.6617 29.9879 19.1672 29.9761 15.6648C30.5332 16.052 31.1694 16.5091 31.6476 16.9846Z" fill="white"/>
<path d="M34.6772 24.1093C34.917 26.7622 33.875 29.4624 32.1087 31.4343C30.0907 31.2854 27.9964 30.8744 26.126 30.0393L34.6772 24.108V24.1093Z" fill="white"/>
<path d="M19.8192 21.2234L14.3146 29.1318C13.1278 26.8899 13.0343 24.1963 13.631 21.7687L19.8192 21.2234Z" fill="white"/>
<path d="M18.6429 25.2843C19.0789 28.4772 19.9825 31.5792 20.7821 34.6904C18.4467 34.0937 16.3444 32.438 15.0272 30.4516L18.6429 25.2843Z" fill="white"/>
<path d="M34.7115 13.8892C35.4498 13.8892 36.0484 13.2906 36.0484 12.5522C36.0484 11.8138 35.4498 11.2153 34.7115 11.2153C33.9731 11.2153 33.3745 11.8138 33.3745 12.5522C33.3745 13.2906 33.9731 13.8892 34.7115 13.8892Z" fill="white"/>
</g>
<defs>
<clipPath id="clip0_15_204">
<rect width="32" height="32" fill="white" transform="translate(8 8)"/>
</clipPath>
</defs>
</svg>
