<?xml version="1.0" encoding="UTF-8"?>
<svg id="Layer_2" data-name="Layer 2" xmlns="http://www.w3.org/2000/svg" viewBox="0 0 242.94 242.94">
  <defs>
    <style>
      .cls-1 {
        fill: #fff;
      }
    </style>
  </defs>
  <g id="Layer_1-2" data-name="Layer 1">
    <g>
      <rect width="242.94" height="242.94" rx="48" ry="48"/>
      <g>
        <path class="cls-1" d="M128.1,69.97l-111,8.97c8.62-22.65,26.22-43.32,47.46-55.12,3.93-2.18,10.88-6.92,14.82-4.36l48.71,50.51Z"/>
        <path class="cls-1" d="M194.25,205.65c-20.62,21.36-53.09,30.34-82.45,28.06-1.94-.15-7.31-.74-8.71-1.38-3.28-1.48-14.84-55.09-16.46-62.57,33.28,17.23,70.18,31.03,107.62,35.89Z"/>
        <path class="cls-1" d="M170.71,93.53L91.1,12.81c26.22-6.72,55.87-5.4,79.6,8.4v72.32Z"/>
        <path class="cls-1" d="M201.71,42.34c15.55,15.44,26.65,36.63,30.51,58.26l-51.41,37.76c3.68-36.49,3.5-73.13,3.37-109.87,5.84,4.06,12.51,8.86,17.53,13.85Z"/>
        <path class="cls-1" d="M233.48,117.07c2.52,27.82-8.41,56.14-26.93,76.83-21.17-1.56-43.14-5.88-62.75-14.62l89.68-62.2Z"/>
        <path class="cls-1" d="M77.64,86.81l-57.73,82.94c-12.45-23.51-13.43-51.77-7.17-77.22l64.91-5.72Z"/>
        <path class="cls-1" d="M65.3,129.4c4.58,33.49,14.06,66.02,22.43,98.65-24.49-6.26-46.54-23.63-60.36-44.46l37.92-54.19Z"/>
      </g>
    </g>
  </g>
</svg>