<svg width="28" height="28" viewBox="0 0 28 28" fill="none" xmlns="http://www.w3.org/2000/svg">
<rect x="0.5" y="0.5" width="27" height="27" rx="13.5" fill="white" fill-opacity="0.25"/>
<rect x="0.5" y="0.5" width="27" height="27" rx="13.5" stroke="#888888"/>
<path d="M14 24L12.55 22.654C10.8667 21.0836 9.475 19.7289 8.375 18.5899C7.275 17.451 6.4 16.4328 5.75 15.5354C5.1 14.6208 4.64167 13.7838 4.375 13.0245C4.125 12.2652 4 11.4886 4 10.6948C4 9.07266 4.525 7.71798 5.575 6.63079C6.625 5.5436 7.93333 5 9.5 5C10.3667 5 11.1917 5.18983 11.975 5.56948C12.7583 5.94914 13.4333 6.48411 14 7.17439C14.5667 6.48411 15.2417 5.94914 16.025 5.56948C16.8083 5.18983 17.6333 5 18.5 5C20.0667 5 21.375 5.5436 22.425 6.63079C23.475 7.71798 24 9.07266 24 10.6948C24 11.4886 23.8667 12.2652 23.6 13.0245C23.35 13.7838 22.9 14.6208 22.25 15.5354C21.6 16.4328 20.725 17.451 19.625 18.5899C18.525 19.7289 17.1333 21.0836 15.45 22.654L14 24Z" fill="white"/>
</svg>
