<svg width="28" height="28" viewBox="0 0 28 28" fill="none" xmlns="http://www.w3.org/2000/svg">
<rect width="28" height="28" rx="14" fill="white" fill-opacity="0.25"/>
<rect x="0.5" y="0.5" width="27" height="27" rx="13.5" stroke="#888888" stroke-opacity="0.5"/>
<path d="M14 22L12.84 20.9373C11.4933 19.6975 10.38 18.6281 9.5 17.7289C8.62 16.8297 7.92 16.0259 7.4 15.3174C6.88 14.5954 6.51333 13.9346 6.3 13.3351C6.1 12.7357 6 12.1226 6 11.4959C6 10.2153 6.42 9.14578 7.26 8.28747C8.1 7.42916 9.14667 7 10.4 7C11.0933 7 11.7533 7.14986 12.38 7.44959C13.0067 7.74932 13.5467 8.17166 14 8.71662C14.4533 8.17166 14.9933 7.74932 15.62 7.44959C16.2467 7.14986 16.9067 7 17.6 7C18.8533 7 19.9 7.42916 20.74 8.28747C21.58 9.14578 22 10.2153 22 11.4959C22 12.1226 21.8933 12.7357 21.68 13.3351C21.48 13.9346 21.12 14.5954 20.6 15.3174C20.08 16.0259 19.38 16.8297 18.5 17.7289C17.62 18.6281 16.5067 19.6975 15.16 20.9373L14 22Z" fill="white"/>
</svg>
